<svg width="48" height="48" viewBox="0 0 48 48" fill="none" xmlns="http://www.w3.org/2000/svg">
<g clip-path="url(#clip0_434_1726)">
<path fill-rule="evenodd" clip-rule="evenodd" d="M23.993 0C10.7623 0 0 10.7653 0 23.9998C0 29.2484 1.69264 34.116 4.57001 38.067L1.57959 46.9838L10.8044 44.0356C14.5986 46.547 19.1264 48 24.007 48C37.2377 48 48 37.2343 48 24.0002C48 10.7657 37.2377 0.000396729 24.007 0.000396729L23.993 0ZM17.2928 12.1908C16.8275 11.0763 16.4748 11.0341 15.7698 11.0054C15.5297 10.9915 15.2622 10.9775 14.9656 10.9775C14.0484 10.9775 13.0895 11.2455 12.511 11.838C11.806 12.5576 10.0568 14.2364 10.0568 17.6792C10.0568 21.122 12.5676 24.4517 12.9059 24.9176C13.2586 25.3827 17.8008 32.5503 24.8533 35.4715C30.3684 37.7572 32.0049 37.5453 33.2601 37.2773C35.0937 36.8823 37.393 35.5272 37.9714 33.8911C38.5499 32.2541 38.5498 30.8572 38.3802 30.5609C38.2111 30.2647 37.7453 30.0958 37.0403 29.7426C36.3353 29.3898 32.9074 27.6967 32.2585 27.4709C31.6235 27.2312 31.0173 27.316 30.538 27.9933C29.8608 28.9386 29.198 29.8983 28.6618 30.4765C28.2386 30.9281 27.5471 30.9846 26.9691 30.7445C26.1932 30.4203 24.0213 29.6578 21.341 27.2734C19.2674 25.4253 17.857 23.1258 17.4481 22.4345C17.0389 21.7293 17.4059 21.3195 17.7299 20.9388C18.0826 20.5012 18.421 20.191 18.7737 19.7817C19.1264 19.3727 19.3239 19.1609 19.5496 18.6811C19.7897 18.2156 19.6201 17.7357 19.4509 17.3829C19.2817 17.0301 17.8713 13.5873 17.2928 12.1908Z" fill="white"/>
</g>
<defs>
<clipPath id="clip0_434_1726">
<rect width="48" height="48" fill="white"/>
</clipPath>
</defs>
</svg>
