<svg width="64" height="64" viewBox="0 0 64 64" fill="none" xmlns="http://www.w3.org/2000/svg">
<g clip-path="url(#clip0_435_1730)">
<path d="M52.8 0H11.2C5.01441 0 0 5.01441 0 11.2V52.8C0 58.9856 5.01441 64 11.2 64H52.8C58.9856 64 64 58.9856 64 52.8V11.2C64 5.01441 58.9856 0 52.8 0Z" fill="#25d366"/>
<path d="M27.42 21.3799L29.42 26.8099C29.4684 26.9314 29.4846 27.0634 29.4671 27.193C29.4496 27.3226 29.3989 27.4456 29.32 27.5499C28.8908 28.1724 28.3944 28.7458 27.84 29.2599C27.6787 29.3865 27.5722 29.5701 27.5424 29.773C27.5127 29.9758 27.5619 30.1823 27.68 30.3499C28.91 31.9999 32.1 35.9999 36.25 37.4299C36.4098 37.4827 36.5824 37.4831 36.7425 37.4309C36.9026 37.3787 37.0419 37.2768 37.14 37.1399L38.8 34.9299C38.9132 34.7804 39.0754 34.6755 39.2582 34.6334C39.441 34.5914 39.6327 34.6149 39.8 34.6999L45 37.2999C45.1808 37.3851 45.3226 37.5356 45.3968 37.7212C45.471 37.9067 45.4721 38.1135 45.4 38.2999C44.83 39.9199 43.04 43.8699 39.21 43.2299C34.2016 42.4614 29.6462 39.8904 26.4 35.9999C23.26 32.0799 17.06 21.9999 26.59 20.8599C26.7664 20.8423 26.9436 20.8839 27.0938 20.978C27.2441 21.0721 27.3588 21.2135 27.42 21.3799Z" fill="white"/>
<path d="M33.6 54.7999C29.4164 54.8058 25.3027 53.7274 21.66 51.6699L9.66003 54.75L14.07 44.84C11.4043 41.0907 9.98088 36.6002 10 32C10 19.43 20.59 9.19995 33.6 9.19995C46.61 9.19995 57.2 19.43 57.2 32C57.2 44.57 46.61 54.7999 33.6 54.7999ZM22.29 47.3699L23.02 47.82C26.1999 49.7826 29.8633 50.8213 33.6 50.82C44.41 50.82 53.2 42.39 53.2 32.02C53.2 21.65 44.41 13.2 33.6 13.2C22.79 13.2 14 21.63 14 32C14.0045 36.1249 15.4155 40.1251 18 43.34L18.75 44.29L15.14 50.41L22.29 47.3699Z" fill="white"/>
</g>
<defs>
<linearGradient id="paint0_linear_435_1730" x1="32" y1="4" x2="32" y2="64.81" gradientUnits="userSpaceOnUse">
<stop stop-color="#006802"/>
<stop offset="0.31" stop-color="#006802"/>
<stop offset="0.75" stop-color="#006802"/>
<stop offset="1" stop-color="#006802"/>
</linearGradient>
<clipPath id="clip0_435_1730">
<rect width="64" height="64" fill="white"/>
</clipPath>
</defs>
</svg>
